<mxfile host="app.diagrams.net" modified="2024-06-11T08:24:45.973Z" agent="Mozilla/5.0 (X11; Linux x86_64; rv:126.0) Gecko/20100101 Firefox/126.0" version="24.4.8" etag="9NFz-lbqLgFWoP-MYiEX" type="github">
  <diagram name="Page-1" id="AEbY0iMGRaOlf0d7Tn17">
    <mxGraphModel>
      <root>
        <mxCell id="0" />
        <mxCell id="1" parent="0" />
      </root>
    </mxGraphModel>
  </diagram>
</mxfile>
